<svg xmlns="http://www.w3.org/2000/svg" width="64" height="64" viewBox="0 0 64 64"><path fill="#de3840" d="M64 23.999v36c0 2.21-1.79 4-4 4H4c-2.21 0-4-1.79-4-4v-46c0-2.21 1.79-4 4-4h12v-6c0-2.211 1.789-4 4-4h24c2.21 0 4 1.789 4 4v16h12c2.21 0 4 1.788 4 4zm-48-12H4c-1.105 0-2 .896-2 2v46a2 2 0 0 0 2 2h12zm19 41.999h-6V62h6zm11-50a2 2 0 0 0-2-2H20a2 2 0 0 0-2 2V62h9V53a1 1 0 0 1 1-1h8a1 1 0 0 1 1 1V62h8.999v-.002zM62 24a2 2 0 0 0-2-2H48v40h12a2 2 0 0 0 2-2zm-56-1v-4a1 1 0 0 1 1-1h4a1 1 0 0 1 1 1v4a1 1 0 0 1-1 1H7a1 1 0 0 1-1-1zm2-1h2v-2H8zm-2 11v-4c0-.553.447-1 1-1h4c.553 0 1 .447 1 1v4a1 1 0 0 1-1 1H7a1 1 0 0 1-1-1zm2-1h2v-2H8zm-2 11v-4a1 1 0 0 1 1-1h4a1 1 0 0 1 1 1v4a1 1 0 0 1-1 1H7a1 1 0 0 1-1-1zm2-1h2v-2H8zm22-23v4a1 1 0 0 1-1 1h-4a1 1 0 0 1-1-1v-4a1 1 0 0 1 1-1h4a1 1 0 0 1 1 1zm-2 1h-2v2h2zm2 9v4a1 1 0 0 1-1 1h-4a1 1 0 0 1-1-1v-4a1 1 0 0 1 1-1h4c.553 0 1 .447 1 1zm-2 1h-2v2h2zm2 9v4a1 1 0 0 1-1 1h-4a1 1 0 0 1-1-1v-4a1 1 0 0 1 1-1h4a1 1 0 0 1 1 1zm-2 1h-2v2h2zm12-21v4a1 1 0 0 1-1 1h-4a1 1 0 0 1-1-1v-4a1 1 0 0 1 1-1h4a1 1 0 0 1 1 1zm-2 1h-2v2h2zm-8-11v4a1 1 0 0 1-1 1h-4a1 1 0 0 1-1-1v-4a1 1 0 0 1 1-1h4a1 1 0 0 1 1 1zm-2 1h-2v2h2zm12-1v4a1 1 0 0 1-1 1h-4a1 1 0 0 1-1-1v-4a1 1 0 0 1 1-1h4a1 1 0 0 1 1 1zm-2 1h-2v2h2zm2 19v4a1 1 0 0 1-1 1h-4a1 1 0 0 1-1-1v-4c0-.553.447-1 1-1h4c.553 0 1 .447 1 1zm-2 1h-2v2h2zm2 9v4a1 1 0 0 1-1 1h-4a1 1 0 0 1-1-1v-4a1 1 0 0 1 1-1h4a1 1 0 0 1 1 1zm-2 1h-2v2h2zm20-11v4a1 1 0 0 1-1 1h-4a1 1 0 0 1-1-1v-4c0-.553.447-1 1-1h4c.553 0 1 .447 1 1zm-2 1h-2v2h2zm2 9v4a1 1 0 0 1-1 1h-4a1 1 0 0 1-1-1v-4a1 1 0 0 1 1-1h4a1 1 0 0 1 1 1zm-2 1h-2v2h2zm2 9v4c0 .552-.447.999-1 .999h-4c-.553 0-1-.447-1-1v-4c0-.552.447-.999 1-.999h4c.553 0 1 .447 1 1zm-2 1h-2v2h2zm-50 3v-4c0-.553.447-1 1-1h4c.553 0 1 .447 1 1v4c0 .552-.447.999-1 .999H7c-.553 0-1-.447-1-1zm2-1h2v-2H8z"/></svg>