<svg xmlns="http://www.w3.org/2000/svg" width="64" height="64" viewBox="0 0 64 64"><path fill="#de3840" d="M64 51.999v7.999c0 2.212-1.79 4-4 4H4c-2.21 0-4-1.788-4-4v-8c0-1.655.672-3.156 1.758-4.242l-.014-.013a47.847 47.847 0 0 1 20.492-9.722A13.95 13.95 0 0 1 18 27.999a3 3 0 0 1-3-3v-2c0-.886.39-1.674 1-2.222v-8.779c0-6.626 5.373-12 12-12h8c6.627 0 12 5.374 12 12v8.779c.61.548 1 1.336 1 2.222v2a3 3 0 0 1-3 3c0 3.93-1.626 7.479-4.235 10.022a47.842 47.842 0 0 1 20.49 9.722l-.013.013A5.982 5.982 0 0 1 64 52zm-46-33a6 6 0 0 1 6-6 4 4 0 0 0 4-4 1 1 0 1 1 2 0 4 4 0 0 0 4 4h6a6 6 0 0 1 6 6v-7c0-5.523-4.478-10-10-10h-8c-5.523 0-10 4.477-10 10zm14 21c6.627 0 12-5.374 12-12v-1a1 1 0 0 1 1-1h1a1 1 0 0 0 1-1v-2a1 1 0 0 0-1-1h-1a1 1 0 0 1-1-1v-2a4 4 0 0 0-4-4h-6a5.992 5.992 0 0 1-5-2.687 5.992 5.992 0 0 1-5 2.687 4 4 0 0 0-4 4v2a1 1 0 0 1-1 1h-1a1 1 0 0 0-1 1v2a1 1 0 0 0 1 1h1a1 1 0 0 1 1 1v1c0 6.626 5.373 12 12 12zm-7.715-.322a45.748 45.748 0 0 0-4.933 1.095c3.25 3.216 7.689 5.226 12.62 5.226 4.939 0 9.383-2.015 12.634-5.238a45.575 45.575 0 0 0-4.891-1.083A13.934 13.934 0 0 1 32 41.999c-2.853 0-5.502-.858-7.715-2.322zM62 51.999a3.983 3.983 0 0 0-1.172-2.828l.004-.004a45.94 45.94 0 0 0-14.089-7.728c-3.655 4.021-8.908 6.56-14.77 6.56-5.856 0-11.104-2.533-14.76-6.546a45.947 45.947 0 0 0-14.045 7.714l.004.004A3.984 3.984 0 0 0 2 51.999v7.999a2 2 0 0 0 2 2h56a2 2 0 0 0 2-2zM24.098 20.563c.282-.58 1.209-1.564 2.9-1.564 1.653 0 2.594.968 2.889 1.542a1 1 0 1 1-1.778.916c-.015-.023-.303-.458-1.111-.458-.818 0-1.088.419-1.116.466-.272.464-.87.651-1.345.396a.98.98 0 0 1-.44-1.297zm10.002 0C34.382 19.983 35.309 19 37 19c1.653 0 2.594.968 2.889 1.542a1 1 0 1 1-1.778.916c-.015-.023-.303-.458-1.111-.458-.819 0-1.088.419-1.116.466-.272.464-.87.651-1.345.396a.98.98 0 0 1-.44-1.297z"/></svg>