<svg xmlns="http://www.w3.org/2000/svg" width="64" height="64" viewBox="0 0 64 64"><path fill="#de3840" d="M64 3.998v28c0 2.212-1.79 4-4 4h-6v8C54 46.21 52.21 48 50 48H34.656c-1.156 0-1.672.671-1.672.671L18.828 62.826A3.998 3.998 0 0 1 12 59.998v-11c0-.552-.447-.999-1-.999H4c-2.211 0-4-1.79-4-4v-30c0-2.21 1.789-4 4-4h8V3.998c0-2.21 1.789-4 4-4h44c2.21 0 4 1.79 4 4zM52 13.999a2 2 0 0 0-2-2H4a2 2 0 0 0-2 2v30c0 1.105.894 2 2 2h8a2 2 0 0 1 2 2v12c0 1.39 1.86 3.14 4 1l14-14s.709-1 2.656-1H50c1.105 0 2-.895 2-2zM62 3.998a1.998 1.998 0 0 0-2-2H16c-1.106 0-2 .895-2 2v6h36c2.21 0 4 1.79 4 4.001v20h6c1.105 0 2-.895 2-2zM12 22.999c0-.554.447-1 1-1h13a.999.999 0 1 1 0 2H13a1 1 0 0 1-1-1zm30 6a1 1 0 0 1-1 1H13a1 1 0 1 1 0-2.001h28a1 1 0 0 1 1 1zm-7 6c0 .553-.447 1-1 1H13a1 1 0 1 1 0-2h21a1 1 0 0 1 1 1z"/></svg>