<svg xmlns="http://www.w3.org/2000/svg" width="64" height="64" viewBox="0 0 64 64"><path fill="#dd222c" d="M64 4v56c0 2.21-1.79 4-4 4H4c-2.21 0-4-1.79-4-4V4c0-2.212 1.79-4 4-4h56c2.21 0 4 1.788 4 4zm-2 0a2 2 0 0 0-2-2H4a2 2 0 0 0-2 2v56a2 2 0 0 0 2 2h56a2 2 0 0 0 2-2zM36 9v47h-8V9a1 1 0 0 1 1-1h6a1 1 0 0 1 1 1zm-2 31h-4v14h4zm0-30h-4v28h4zm-8 6.999v39h-8V17a1 1 0 0 1 1-1h6a1 1 0 0 1 1 1zm-2 27h-4v10h4zm0-26h-4v24h4zm32 7v31h-8V25a1 1 0 0 1 1-1h6a1 1 0 0 1 1 1zm-2 19h-4v10h4zm0-18h-4v16h4zm-8 7v23h-8V33a1 1 0 0 1 1-1h6a1 1 0 0 1 1 1zm-2 15h-4v6h4zm0-14h-4v12h4zm-28-9v31H8V25a1 1 0 0 1 1-1h6a1 1 0 0 1 1 1zm-2 23h-4v6h4zm0-22h-4v20h4z"/></svg>