<svg xmlns="http://www.w3.org/2000/svg" width="64" height="64" viewBox="0 0 64 64"><path fill="#dd222c" d="M64 10v7.999c0 6.074-4.925 11-11 11h-.1c-.915 9.662-8.377 17.395-17.9 18.762v8.238h7c2.21 0 4 1.789 4 4v3a1 1 0 0 1-1 1H19a1 1 0 0 1-1-1v-3c0-2.211 1.789-4 4-4h7V47.76c-9.523-1.367-16.99-9.102-17.904-18.762H11C4.925 29 0 24.073 0 18v-8c0-2.212 1.79-4 4-4h7V4c0-2.212 1.789-4 4-4h34c2.21 0 4 1.788 4 4v2h7c2.21 0 4 1.788 4 4zm-53 2H6v5.999a5 5 0 0 0 5 5zm0 15v-2a7 7 0 0 1-7-7.001v-7c0-.554.447-1 1-1h6V8H4a2 2 0 0 0-2 2v8a9 9 0 0 0 9 9zm11 31a2 2 0 0 0-2 1.999v2h24v-2a2 2 0 0 0-2-2zm11-2.001v-8.052c-.334.016-.662.052-1 .052-.338 0-.666-.036-1-.052v8.052zm18-52a2 2 0 0 0-2-2H15a2 2 0 0 0-2 2v23c0 10.492 8.507 19 19 19s19-8.508 19-19zm2 19a5 5 0 0 0 5-5v-6h-5zm9-13a2 2 0 0 0-2-2h-7v2h6c.553 0 1 .446 1 1v7a7 7 0 0 1-7 7v2a9 9 0 0 0 9-9zM39.944 20.03a1 1 0 0 1-.232 1.016l-3.147 3.227.745 4.563a1.002 1.002 0 0 1-1.471 1.038l-3.841-2.123-3.84 2.123a1.003 1.003 0 0 1-1.473-1.038l.746-4.563-3.147-3.227a1 1 0 0 1 .565-1.687l4.308-.657 1.936-4.123a1 1 0 0 1 1.81 0l1.936 4.123 4.308.657c.37.058.678.316.797.671zm-3.022 1.014l-2.913-.446a.998.998 0 0 1-.754-.564l-1.257-2.677-1.257 2.677a.997.997 0 0 1-.754.564l-2.913.446 2.14 2.193c.222.228.323.546.272.86l-.495 3.03 2.523-1.395c.151-.083.317-.125.484-.125.167 0 .333.042.484.125l2.523 1.394-.495-3.03c-.051-.313.05-.63.271-.859z"/></svg>