<svg xmlns="http://www.w3.org/2000/svg" width="64" height="64" viewBox="0 0 64 64"><path fill="#dd222c" d="M64 62v2H0v-2a4 4 0 0 1 4-4.001 4 4 0 0 1 4-4h2V25H4a4 4 0 0 1-2.076-7.419l28-17A3.991 3.991 0 0 1 32 0c.719 0 1.438.192 2.076.58l28 17A3.999 3.999 0 0 1 60 25h-6v29h2a4 4 0 0 1 4 3.999 4 4 0 0 1 4 4zM52 25h-4v29h4zM18 54h4V25h-4zm6 0h4V25h-4zm6 0h4V25h-4zm6 0h4V25h-4zm6 0h4V25h-4zm18-31c.893 0 1.685-.601 1.926-1.462a2.005 2.005 0 0 0-.888-2.248l-28-17A1.983 1.983 0 0 0 32 2c-.366 0-.725.099-1.037.29l-28.001 17a2.004 2.004 0 0 0-.888 2.247A2.007 2.007 0 0 0 4 23zM12 54h4V25h-4zm-6 3.999h52a2 2 0 0 0-2-2H8a2 2 0 0 0-2 2zm56 4a2 2 0 0 0-2-2H4a2 2 0 0 0-2 2zM37 14a5 5 0 1 1-10 0 5 5 0 0 1 10 0zm-2 0a3 3 0 1 0-6 0 3 3 0 0 0 6 0z"/></svg>