<svg xmlns="http://www.w3.org/2000/svg" width="44" height="64" viewBox="0 0 44 64"><path fill="#dd222c" d="M36 38.957v23.042a2 2 0 0 1-3.2 1.6L22 55.5l-10.8 8.1a2.01 2.01 0 0 1-2.095.189A2 2 0 0 1 8 61.999V38.957c-4.883-4.038-8-10.141-8-16.958C0 9.868 9.869 0 22 0c12.13 0 22 9.869 22 22 0 6.817-3.117 12.92-8 16.958zM12 60.499V41.585a22.007 22.007 0 0 1-2-1.16v21.574zM30 59V42.486A21.867 21.867 0 0 1 22 44c-2.822 0-5.519-.54-8-1.513V59l8-6zm4-18.575c-.644.42-1.312.808-2 1.16V60.5l2 1.5zM42 22c0-11.028-8.972-20-20-20S2 10.971 2 22c0 11.029 8.972 20 20 20s20-8.971 20-20zm-2 0c0 9.924-8.075 18-18 18s-18-8.076-18-18S12.075 4 22 4s18 8.076 18 18zm-2 0c0-8.822-7.178-16-16-16S6 13.177 6 22s7.178 16 16 16 16-7.178 16-16zm-8.056-1.967c.12.355.03.747-.232 1.015l-3.147 3.227.745 4.564a1.001 1.001 0 0 1-1.471 1.036l-3.841-2.124-3.84 2.124a1 1 0 0 1-1.473-1.036l.746-4.564-3.147-3.227a1 1 0 0 1 .565-1.687l4.308-.658 1.936-4.123a.999.999 0 0 1 1.81 0l1.936 4.123 4.308.658a1 1 0 0 1 .797.672zm-3.022 1.012l-2.913-.445a.999.999 0 0 1-.754-.564l-1.257-2.677-1.257 2.677a.999.999 0 0 1-.754.564l-2.913.445 2.14 2.194c.223.228.323.546.272.86l-.495 3.03 2.523-1.396a1.008 1.008 0 0 1 .968 0l2.523 1.395-.495-3.029c-.051-.314.05-.632.271-.86z"/></svg>