<svg xmlns="http://www.w3.org/2000/svg" width="64" height="64" viewBox="0 0 64 64"><path fill="#dd222c" d="M51.414 35.413c-4.137 4.137-1.097 14.25.424 17.798a2 2 0 0 1-1.509 2.761l-48 8A2.001 2.001 0 0 1 .027 61.67l8-48a2 2 0 0 1 2.76-1.511c.058.026 5.933 2.507 11.362 2.507 2.89 0 5.056-.701 6.437-2.082l12-12C40.976.195 41.488 0 42 0c.512 0 1.023.195 1.414.585l20 20a2 2 0 0 1 0 2.829zm.879-3.707l-20-20-1.586 1.586 20 20zM33.707 10.292l20 20L62 21.999 42 2h-.002zm15.65 24.457c-.02-.017-.045-.023-.064-.043l-20-20c-.017-.016-.023-.039-.037-.057-1.735 1.338-4.12 2.017-7.107 2.017-5.924 0-12.096-2.643-12.158-2.67L2.282 60.304l20.551-20.551A4.963 4.963 0 0 1 22 36.999c0-2.757 2.243-5 5-5s5 2.243 5 5-2.243 5-5 5a4.965 4.965 0 0 1-2.753-.833L3.698 61.716 50 53.999c-.91-2.12-2.038-5.656-2.48-9.22-.545-4.393.079-7.756 1.837-10.03zM27 40c1.654 0 3-1.345 3-3 0-1.654-1.346-3-3-3s-3 1.346-3 3c0 1.655 1.346 3 3 3z"/></svg>