<svg xmlns="http://www.w3.org/2000/svg" width="56" height="64" viewBox="0 0 56 64"><path fill="#dd222c" d="M54 53.999v8h1a1 1 0 1 1 0 2H6a6 6 0 0 1-6-6V4c0-2.21 1.789-4 4-4h48c2.21 0 4 1.79 4 4v48a2 2 0 0 1-2 2zm-52-.463A5.968 5.968 0 0 1 6 52h2V2H4a2 2 0 0 0-2 2zM52 54H6a4 4 0 0 0 0 8h46zm2-2V4a2 2 0 0 0-2-2H10v50zM39 27c0 .553-.447 1-1 1H19a.999.999 0 1 1 0-2h19a1 1 0 0 1 1 1zm7-6a1 1 0 0 1-1 1H19a1 1 0 1 1 0-2h26a1 1 0 0 1 1 1zm-28-6a1 1 0 0 1 1-1h12a1 1 0 1 1 0 2H19c-.553 0-1-.447-1-1z"/></svg>