<svg xmlns="http://www.w3.org/2000/svg" width="30" height="32" viewBox="0 0 30 32"><path fill="#dd222c" d="M30 15.999a1 1 0 0 1-1 1h-6a1 1 0 1 1 0-2h6a1 1 0 0 1 1 1zm-8.904-5.13c-.189-.52.079-1.093.597-1.283l5.639-2.052a1 1 0 1 1 .683 1.88l-5.637 2.051a1 1 0 0 1-1.282-.596zm7.517 12.996a.998.998 0 0 1-1.281.598l-5.639-2.053a.999.999 0 1 1 .684-1.879l5.638 2.053c.52.19.788.761.598 1.281zM16 2v8c0 1.105-.895 2-2 2h-4v8h4c1.105 0 2 .895 2 2v8a2 2 0 0 1-2 2H5.996c-.236 0-.469-.058-.691-.14-.045-.017-.09-.03-.133-.052a1.908 1.908 0 0 1-.551-.37c-.033-.033-.057-.068-.088-.1-.066-.074-.14-.143-.197-.23C4.158 30.843 0 26 0 16S4.383.788 4.582.589C4.767.4 4.99.255 5.236.153 5.48.052 5.74 0 6 0h8c1.105 0 2 .894 2 2zm-4 20v8h2v-8zm-2-12v-8H6.007C5.565 2.54 2 7.192 2 15.999c0 8.14 2.954 12.627 3.86 13.807l.077.104.052.056a.215.215 0 0 1 .019.02l.038.013H10v-8a2 2 0 0 1-2-2v-8a2 2 0 0 1 2-2zm4-8h-2v8h2z"/></svg>